# xmcd
#
# Track frame offsets: 
#        150
#        20422
#        38450
#        57587
#        86512
#        106892
#        124695
#        144025
#        161277
#        190550
#
# Disc length: 2799 seconds
#
# Revision: 1
# Processed by: cddbd v1.5.2PL0 Copyright (c) Steve Scherf et al.
# Submitted via: ExactAudioCopy v1.0b3
#
DISCID=6d0aed0a
DTITLE=Theodis Ealey - If You Leave Me, I'm Going Wit' Cha
DYEAR=1993
DGENRE=Jazz
TTITLE0=House Of The Rising Sun
TTITLE1=Travelin' Mind
TTITLE2=If You Leave Me, I'm Going Wit' Cha
TTITLE3=Looking Up At The Bottom
TTITLE4=Gimme Just A Little Sign
TTITLE5=Hard Times
TTITLE6=Wicked City Woman
TTITLE7=This Time I Know
TTITLE8=Black Night
TTITLE9=Stop Doggin' Me Around
EXTD=YEAR: 1993
EXTT0=
EXTT1=
EXTT2=
EXTT3=
EXTT4=
EXTT5=
EXTT6=
EXTT7=
EXTT8=
EXTT9=
PLAYORDER=
